<mxfile host="app.diagrams.net" modified="2024-05-06T21:34:38.148Z" agent="Mozilla/5.0 (Windows NT 10.0; Win64; x64) AppleWebKit/537.36 (KHTML, like Gecko) Chrome/124.0.0.0 Safari/537.36" etag="PaqTgKDWzyc-4zoNL0zU" version="24.3.1" type="device">
  <diagram id="prtHgNgQTEPvFCAcTncT" name="Page-1">
    <mxGraphModel dx="1363" dy="1966" grid="1" gridSize="10" guides="1" tooltips="1" connect="1" arrows="1" fold="1" page="1" pageScale="1" pageWidth="827" pageHeight="1169" math="0" shadow="0">
      <root>
        <mxCell id="0" />
        <mxCell id="1" parent="0" />
        <mxCell id="dNxyNK7c78bLwvsdeMH5-19" value="Sending a question to the chatbot" style="swimlane;html=1;childLayout=stackLayout;resizeParent=1;resizeParentMax=0;horizontal=0;startSize=20;horizontalStack=0;" parent="1" vertex="1">
          <mxGeometry x="120" y="-40" width="840" height="240" as="geometry" />
        </mxCell>
        <mxCell id="dNxyNK7c78bLwvsdeMH5-21" value="AI/Chatbot" style="swimlane;html=1;startSize=20;horizontal=0;" parent="dNxyNK7c78bLwvsdeMH5-19" vertex="1">
          <mxGeometry x="20" width="820" height="120" as="geometry" />
        </mxCell>
        <mxCell id="0sVa5-BdStyefK7fvEnc-7" value="" style="edgeStyle=orthogonalEdgeStyle;rounded=0;orthogonalLoop=1;jettySize=auto;html=1;" edge="1" parent="dNxyNK7c78bLwvsdeMH5-21" source="0sVa5-BdStyefK7fvEnc-4" target="0sVa5-BdStyefK7fvEnc-6">
          <mxGeometry relative="1" as="geometry" />
        </mxCell>
        <mxCell id="0sVa5-BdStyefK7fvEnc-4" value="Chatbot analyses&amp;nbsp; users question." style="rounded=1;whiteSpace=wrap;html=1;fillColor=#f0a30a;fontColor=#000000;strokeColor=#BD7000;align=center;shape=label;fixedSize=1;" vertex="1" parent="dNxyNK7c78bLwvsdeMH5-21">
          <mxGeometry x="140" y="35" width="120" height="50" as="geometry" />
        </mxCell>
        <mxCell id="0sVa5-BdStyefK7fvEnc-9" value="" style="edgeStyle=orthogonalEdgeStyle;rounded=0;orthogonalLoop=1;jettySize=auto;html=1;" edge="1" parent="dNxyNK7c78bLwvsdeMH5-21" source="0sVa5-BdStyefK7fvEnc-6" target="0sVa5-BdStyefK7fvEnc-8">
          <mxGeometry relative="1" as="geometry" />
        </mxCell>
        <mxCell id="0sVa5-BdStyefK7fvEnc-14" value="Yes" style="edgeLabel;html=1;align=center;verticalAlign=middle;resizable=0;points=[];" vertex="1" connectable="0" parent="0sVa5-BdStyefK7fvEnc-9">
          <mxGeometry x="-0.0605" y="-1" relative="1" as="geometry">
            <mxPoint y="-1" as="offset" />
          </mxGeometry>
        </mxCell>
        <mxCell id="0sVa5-BdStyefK7fvEnc-22" style="edgeStyle=orthogonalEdgeStyle;rounded=0;orthogonalLoop=1;jettySize=auto;html=1;entryX=0.5;entryY=0;entryDx=0;entryDy=0;exitX=0.5;exitY=0;exitDx=0;exitDy=0;" edge="1" parent="dNxyNK7c78bLwvsdeMH5-21" source="0sVa5-BdStyefK7fvEnc-6" target="0sVa5-BdStyefK7fvEnc-18">
          <mxGeometry relative="1" as="geometry">
            <Array as="points">
              <mxPoint x="690" y="10" />
            </Array>
          </mxGeometry>
        </mxCell>
        <mxCell id="0sVa5-BdStyefK7fvEnc-23" value="No" style="edgeLabel;html=1;align=center;verticalAlign=middle;resizable=0;points=[];" vertex="1" connectable="0" parent="0sVa5-BdStyefK7fvEnc-22">
          <mxGeometry x="-0.0505" y="2" relative="1" as="geometry">
            <mxPoint as="offset" />
          </mxGeometry>
        </mxCell>
        <mxCell id="0sVa5-BdStyefK7fvEnc-6" value="can chatbot answer question&amp;nbsp;" style="rhombus;whiteSpace=wrap;html=1;fillColor=#e3c800;fontColor=#000000;strokeColor=#B09500;" vertex="1" parent="dNxyNK7c78bLwvsdeMH5-21">
          <mxGeometry x="310" y="10" width="100" height="100" as="geometry" />
        </mxCell>
        <mxCell id="0sVa5-BdStyefK7fvEnc-8" value="output the answer to question." style="rounded=1;whiteSpace=wrap;html=1;fillColor=#f0a30a;fontColor=#000000;strokeColor=#BD7000;align=center;shape=parallelogram;perimeter=parallelogramPerimeter;fixedSize=1;" vertex="1" parent="dNxyNK7c78bLwvsdeMH5-21">
          <mxGeometry x="460" y="35" width="120" height="50" as="geometry" />
        </mxCell>
        <mxCell id="0sVa5-BdStyefK7fvEnc-18" value="send user the answer question." style="rounded=1;whiteSpace=wrap;html=1;fillColor=#f0a30a;fontColor=#000000;strokeColor=#BD7000;align=center;shape=parallelogram;perimeter=parallelogramPerimeter;fixedSize=1;" vertex="1" parent="dNxyNK7c78bLwvsdeMH5-21">
          <mxGeometry x="630" y="35" width="120" height="50" as="geometry" />
        </mxCell>
        <mxCell id="dNxyNK7c78bLwvsdeMH5-22" value="Base User" style="swimlane;html=1;startSize=20;horizontal=0;" parent="dNxyNK7c78bLwvsdeMH5-19" vertex="1">
          <mxGeometry x="20" y="120" width="820" height="120" as="geometry" />
        </mxCell>
        <mxCell id="0sVa5-BdStyefK7fvEnc-3" value="" style="edgeStyle=orthogonalEdgeStyle;rounded=0;orthogonalLoop=1;jettySize=auto;html=1;" edge="1" parent="dNxyNK7c78bLwvsdeMH5-22" source="0sVa5-BdStyefK7fvEnc-1" target="0sVa5-BdStyefK7fvEnc-2">
          <mxGeometry relative="1" as="geometry" />
        </mxCell>
        <mxCell id="0sVa5-BdStyefK7fvEnc-1" value="" style="ellipse;whiteSpace=wrap;html=1;aspect=fixed;fillColor=#e51400;fontColor=#ffffff;strokeColor=#B20000;" vertex="1" parent="dNxyNK7c78bLwvsdeMH5-22">
          <mxGeometry x="50" y="40" width="40" height="40" as="geometry" />
        </mxCell>
        <mxCell id="0sVa5-BdStyefK7fvEnc-2" value="User inputs the chatbot a question." style="rounded=1;whiteSpace=wrap;html=1;fillColor=#f0a30a;fontColor=#000000;strokeColor=#BD7000;shape=parallelogram;perimeter=parallelogramPerimeter;fixedSize=1;" vertex="1" parent="dNxyNK7c78bLwvsdeMH5-22">
          <mxGeometry x="140" y="35" width="120" height="50" as="geometry" />
        </mxCell>
        <mxCell id="0sVa5-BdStyefK7fvEnc-24" value="" style="ellipse;whiteSpace=wrap;html=1;aspect=fixed;fillColor=#76608a;fontColor=#ffffff;strokeColor=#432D57;" vertex="1" parent="dNxyNK7c78bLwvsdeMH5-22">
          <mxGeometry x="580" y="30" width="40" height="40" as="geometry" />
        </mxCell>
        <mxCell id="0sVa5-BdStyefK7fvEnc-5" value="" style="edgeStyle=orthogonalEdgeStyle;rounded=0;orthogonalLoop=1;jettySize=auto;html=1;" edge="1" parent="dNxyNK7c78bLwvsdeMH5-19" source="0sVa5-BdStyefK7fvEnc-2" target="0sVa5-BdStyefK7fvEnc-4">
          <mxGeometry relative="1" as="geometry" />
        </mxCell>
        <mxCell id="0sVa5-BdStyefK7fvEnc-25" style="edgeStyle=orthogonalEdgeStyle;rounded=0;orthogonalLoop=1;jettySize=auto;html=1;entryX=0;entryY=0.5;entryDx=0;entryDy=0;" edge="1" parent="dNxyNK7c78bLwvsdeMH5-19" source="0sVa5-BdStyefK7fvEnc-8" target="0sVa5-BdStyefK7fvEnc-24">
          <mxGeometry relative="1" as="geometry" />
        </mxCell>
        <mxCell id="0sVa5-BdStyefK7fvEnc-26" style="edgeStyle=orthogonalEdgeStyle;rounded=0;orthogonalLoop=1;jettySize=auto;html=1;entryX=1;entryY=0.5;entryDx=0;entryDy=0;" edge="1" parent="dNxyNK7c78bLwvsdeMH5-19" source="0sVa5-BdStyefK7fvEnc-18" target="0sVa5-BdStyefK7fvEnc-24">
          <mxGeometry relative="1" as="geometry">
            <Array as="points">
              <mxPoint x="710" y="170" />
            </Array>
          </mxGeometry>
        </mxCell>
        <mxCell id="0sVa5-BdStyefK7fvEnc-27" value="Training the chatbot" style="swimlane;html=1;childLayout=stackLayout;resizeParent=1;resizeParentMax=0;horizontal=0;startSize=20;horizontalStack=0;" vertex="1" parent="1">
          <mxGeometry x="120" y="280" width="840" height="240" as="geometry" />
        </mxCell>
        <mxCell id="0sVa5-BdStyefK7fvEnc-28" value="AI/Chatbot" style="swimlane;html=1;startSize=20;horizontal=0;" vertex="1" parent="0sVa5-BdStyefK7fvEnc-27">
          <mxGeometry x="20" width="820" height="120" as="geometry" />
        </mxCell>
        <mxCell id="0sVa5-BdStyefK7fvEnc-75" value="" style="edgeStyle=orthogonalEdgeStyle;rounded=0;orthogonalLoop=1;jettySize=auto;html=1;" edge="1" parent="0sVa5-BdStyefK7fvEnc-28" source="0sVa5-BdStyefK7fvEnc-72" target="0sVa5-BdStyefK7fvEnc-74">
          <mxGeometry relative="1" as="geometry" />
        </mxCell>
        <mxCell id="0sVa5-BdStyefK7fvEnc-72" value="run training&amp;nbsp;&lt;div&gt;epochs&amp;nbsp;&lt;/div&gt;" style="rounded=1;whiteSpace=wrap;html=1;fillColor=#f0a30a;fontColor=#000000;strokeColor=#BD7000;shape=parallelogram;perimeter=parallelogramPerimeter;fixedSize=1;" vertex="1" parent="0sVa5-BdStyefK7fvEnc-28">
          <mxGeometry x="300" y="35" width="120" height="50" as="geometry" />
        </mxCell>
        <mxCell id="0sVa5-BdStyefK7fvEnc-74" value="edit data based on epocs" style="rounded=1;whiteSpace=wrap;html=1;fillColor=#f0a30a;fontColor=#000000;strokeColor=#BD7000;shape=parallelogram;perimeter=parallelogramPerimeter;fixedSize=1;" vertex="1" parent="0sVa5-BdStyefK7fvEnc-28">
          <mxGeometry x="470" y="35" width="120" height="50" as="geometry" />
        </mxCell>
        <mxCell id="0sVa5-BdStyefK7fvEnc-38" value="Client" style="swimlane;html=1;startSize=20;horizontal=0;" vertex="1" parent="0sVa5-BdStyefK7fvEnc-27">
          <mxGeometry x="20" y="120" width="820" height="120" as="geometry" />
        </mxCell>
        <mxCell id="0sVa5-BdStyefK7fvEnc-49" value="" style="edgeStyle=orthogonalEdgeStyle;rounded=0;orthogonalLoop=1;jettySize=auto;html=1;" edge="1" parent="0sVa5-BdStyefK7fvEnc-38" source="0sVa5-BdStyefK7fvEnc-40" target="0sVa5-BdStyefK7fvEnc-48">
          <mxGeometry relative="1" as="geometry" />
        </mxCell>
        <mxCell id="0sVa5-BdStyefK7fvEnc-40" value="" style="ellipse;whiteSpace=wrap;html=1;aspect=fixed;fillColor=#e51400;fontColor=#ffffff;strokeColor=#B20000;" vertex="1" parent="0sVa5-BdStyefK7fvEnc-38">
          <mxGeometry x="50" y="40" width="40" height="40" as="geometry" />
        </mxCell>
        <mxCell id="0sVa5-BdStyefK7fvEnc-42" value="" style="ellipse;whiteSpace=wrap;html=1;aspect=fixed;fillColor=#76608a;fontColor=#ffffff;strokeColor=#432D57;" vertex="1" parent="0sVa5-BdStyefK7fvEnc-38">
          <mxGeometry x="510" y="35" width="40" height="40" as="geometry" />
        </mxCell>
        <mxCell id="0sVa5-BdStyefK7fvEnc-47" value="" style="shape=trapezoid;perimeter=trapezoidPerimeter;whiteSpace=wrap;html=1;fixedSize=1;rotation=-180;fillColor=#1ba1e2;fontColor=#ffffff;strokeColor=#006EAF;" vertex="1" parent="0sVa5-BdStyefK7fvEnc-38">
          <mxGeometry x="150" y="35" width="110" height="50" as="geometry" />
        </mxCell>
        <mxCell id="0sVa5-BdStyefK7fvEnc-71" value="" style="edgeStyle=orthogonalEdgeStyle;rounded=0;orthogonalLoop=1;jettySize=auto;html=1;" edge="1" parent="0sVa5-BdStyefK7fvEnc-38" source="0sVa5-BdStyefK7fvEnc-48" target="0sVa5-BdStyefK7fvEnc-70">
          <mxGeometry relative="1" as="geometry" />
        </mxCell>
        <mxCell id="0sVa5-BdStyefK7fvEnc-48" value="Client adds new questions in intents file" style="text;html=1;align=center;verticalAlign=middle;whiteSpace=wrap;rounded=0;" vertex="1" parent="0sVa5-BdStyefK7fvEnc-38">
          <mxGeometry x="155" y="45" width="100" height="30" as="geometry" />
        </mxCell>
        <mxCell id="0sVa5-BdStyefK7fvEnc-70" value="User inputs the chatbot a question." style="rounded=1;whiteSpace=wrap;html=1;fillColor=#f0a30a;fontColor=#000000;strokeColor=#BD7000;shape=parallelogram;perimeter=parallelogramPerimeter;fixedSize=1;" vertex="1" parent="0sVa5-BdStyefK7fvEnc-38">
          <mxGeometry x="300" y="35" width="120" height="50" as="geometry" />
        </mxCell>
        <mxCell id="0sVa5-BdStyefK7fvEnc-73" style="edgeStyle=orthogonalEdgeStyle;rounded=0;orthogonalLoop=1;jettySize=auto;html=1;" edge="1" parent="0sVa5-BdStyefK7fvEnc-27" source="0sVa5-BdStyefK7fvEnc-70" target="0sVa5-BdStyefK7fvEnc-72">
          <mxGeometry relative="1" as="geometry" />
        </mxCell>
        <mxCell id="0sVa5-BdStyefK7fvEnc-76" value="" style="edgeStyle=orthogonalEdgeStyle;rounded=0;orthogonalLoop=1;jettySize=auto;html=1;" edge="1" parent="0sVa5-BdStyefK7fvEnc-27" source="0sVa5-BdStyefK7fvEnc-74" target="0sVa5-BdStyefK7fvEnc-42">
          <mxGeometry relative="1" as="geometry" />
        </mxCell>
        <mxCell id="0sVa5-BdStyefK7fvEnc-92" value="Process" style="rounded=1;whiteSpace=wrap;html=1;fillColor=#f0a30a;fontColor=#000000;strokeColor=#BD7000;align=center;shape=label;fixedSize=1;" vertex="1" parent="1">
          <mxGeometry x="330" y="-150" width="120" height="50" as="geometry" />
        </mxCell>
        <mxCell id="0sVa5-BdStyefK7fvEnc-93" value="" style="ellipse;whiteSpace=wrap;html=1;aspect=fixed;fillColor=#e51400;fontColor=#ffffff;strokeColor=#B20000;" vertex="1" parent="1">
          <mxGeometry x="150" y="-145" width="40" height="40" as="geometry" />
        </mxCell>
        <mxCell id="0sVa5-BdStyefK7fvEnc-94" value="" style="ellipse;whiteSpace=wrap;html=1;aspect=fixed;fillColor=#76608a;fontColor=#ffffff;strokeColor=#432D57;" vertex="1" parent="1">
          <mxGeometry x="241" y="-145" width="40" height="40" as="geometry" />
        </mxCell>
        <mxCell id="0sVa5-BdStyefK7fvEnc-96" value="Discission" style="rhombus;whiteSpace=wrap;html=1;fillColor=#e3c800;fontColor=#000000;strokeColor=#B09500;" vertex="1" parent="1">
          <mxGeometry x="500" y="-175" width="100" height="100" as="geometry" />
        </mxCell>
        <mxCell id="0sVa5-BdStyefK7fvEnc-97" value="" style="shape=trapezoid;perimeter=trapezoidPerimeter;whiteSpace=wrap;html=1;fixedSize=1;rotation=-180;fillColor=#1ba1e2;fontColor=#ffffff;strokeColor=#006EAF;" vertex="1" parent="1">
          <mxGeometry x="650" y="-145" width="110" height="50" as="geometry" />
        </mxCell>
        <mxCell id="0sVa5-BdStyefK7fvEnc-98" value="Manual process" style="text;html=1;align=center;verticalAlign=middle;whiteSpace=wrap;rounded=0;" vertex="1" parent="1">
          <mxGeometry x="655" y="-135" width="100" height="30" as="geometry" />
        </mxCell>
        <mxCell id="0sVa5-BdStyefK7fvEnc-99" value="END" style="text;html=1;align=center;verticalAlign=middle;whiteSpace=wrap;rounded=0;" vertex="1" parent="1">
          <mxGeometry x="231" y="-100" width="60" height="30" as="geometry" />
        </mxCell>
        <mxCell id="0sVa5-BdStyefK7fvEnc-100" value="START" style="text;html=1;align=center;verticalAlign=middle;whiteSpace=wrap;rounded=0;" vertex="1" parent="1">
          <mxGeometry x="140" y="-100" width="60" height="30" as="geometry" />
        </mxCell>
      </root>
    </mxGraphModel>
  </diagram>
</mxfile>
